<svg width="163" height="151" viewBox="0 0 163 151" fill="none" xmlns="http://www.w3.org/2000/svg">
<g style="mix-blend-mode:color-dodge" opacity="0.9" filter="url(#filter0_d_0_1)">
<mask id="path-1-outside-1_0_1" maskUnits="userSpaceOnUse" x="12" y="35" width="135" height="72" fill="black">
<rect fill="white" x="12" y="35" width="135" height="72"/>
<path d="M26.7045 106H14.4318L49.75 36.1818H63.4886L77.9432 106H65.7045L54.9659 49.6136H54.4205L26.7045 106ZM31.9886 78.6591H68.5L67.0682 88.1023H30.5568L31.9886 78.6591ZM88.585 106L99.0168 36.1818H124.517C129.903 36.1818 134.244 37.1705 137.54 39.1477C140.858 41.125 143.165 43.8409 144.46 47.2955C145.778 50.75 146.108 54.6591 145.449 59.0227C144.812 63.3864 143.312 67.2955 140.949 70.75C138.608 74.2045 135.471 76.9318 131.54 78.9318C127.63 80.9091 122.971 81.8977 117.562 81.8977H100.346L101.778 72.2841H117.699C120.994 72.2841 123.767 71.7159 126.017 70.5795C128.267 69.4205 130.028 67.8409 131.301 65.8409C132.596 63.8409 133.426 61.5682 133.79 59.0227C134.176 56.4545 134.017 54.1932 133.312 52.2386C132.63 50.2614 131.335 48.7159 129.426 47.6023C127.517 46.4659 124.903 45.8977 121.585 45.8977H109.108L100.108 106H88.585Z"/>
</mask>
<path d="M26.7045 106H14.4318L49.75 36.1818H63.4886L77.9432 106H65.7045L54.9659 49.6136H54.4205L26.7045 106ZM31.9886 78.6591H68.5L67.0682 88.1023H30.5568L31.9886 78.6591ZM88.585 106L99.0168 36.1818H124.517C129.903 36.1818 134.244 37.1705 137.54 39.1477C140.858 41.125 143.165 43.8409 144.46 47.2955C145.778 50.75 146.108 54.6591 145.449 59.0227C144.812 63.3864 143.312 67.2955 140.949 70.75C138.608 74.2045 135.471 76.9318 131.54 78.9318C127.63 80.9091 122.971 81.8977 117.562 81.8977H100.346L101.778 72.2841H117.699C120.994 72.2841 123.767 71.7159 126.017 70.5795C128.267 69.4205 130.028 67.8409 131.301 65.8409C132.596 63.8409 133.426 61.5682 133.79 59.0227C134.176 56.4545 134.017 54.1932 133.312 52.2386C132.63 50.2614 131.335 48.7159 129.426 47.6023C127.517 46.4659 124.903 45.8977 121.585 45.8977H109.108L100.108 106H88.585Z" fill="white"/>
<path d="M26.7045 106V107H27.3273L27.602 106.441L26.7045 106ZM14.4318 106L13.5395 105.549L12.8053 107H14.4318V106ZM49.75 36.1818V35.1818H49.1352L48.8577 35.7304L49.75 36.1818ZM63.4886 36.1818L64.4679 35.9791L64.3028 35.1818H63.4886V36.1818ZM77.9432 106V107H79.1714L78.9224 105.797L77.9432 106ZM65.7045 106L64.7222 106.187L64.877 107H65.7045V106ZM54.9659 49.6136L55.9483 49.4265L55.7934 48.6136H54.9659V49.6136ZM54.4205 49.6136V48.6136H53.7977L53.523 49.1725L54.4205 49.6136ZM31.9886 78.6591V77.6591H31.1288L30.9999 78.5092L31.9886 78.6591ZM68.5 78.6591L69.4887 78.809L69.6631 77.6591H68.5V78.6591ZM67.0682 88.1023V89.1023H67.928L68.0569 88.2522L67.0682 88.1023ZM30.5568 88.1023L29.5681 87.9524L29.3938 89.1023H30.5568V88.1023ZM26.7045 105H14.4318V107H26.7045V105ZM15.3241 106.451L50.6423 36.6332L48.8577 35.7304L13.5395 105.549L15.3241 106.451ZM49.75 37.1818H63.4886V35.1818H49.75V37.1818ZM62.5094 36.3845L76.964 106.203L78.9224 105.797L64.4679 35.9791L62.5094 36.3845ZM77.9432 105H65.7045V107H77.9432V105ZM66.6869 105.813L55.9483 49.4265L53.9836 49.8007L64.7222 106.187L66.6869 105.813ZM54.9659 48.6136H54.4205V50.6136H54.9659V48.6136ZM53.523 49.1725L25.8071 105.559L27.602 106.441L55.3179 50.0548L53.523 49.1725ZM31.9886 79.6591H68.5V77.6591H31.9886V79.6591ZM67.5113 78.5092L66.0795 87.9524L68.0569 88.2522L69.4887 78.809L67.5113 78.5092ZM67.0682 87.1023H30.5568V89.1023H67.0682V87.1023ZM31.5455 88.2522L32.9773 78.809L30.9999 78.5092L29.5681 87.9524L31.5455 88.2522ZM88.585 106L87.596 105.852L87.4245 107H88.585V106ZM99.0168 36.1818V35.1818H98.1551L98.0278 36.034L99.0168 36.1818ZM137.54 39.1477L137.025 40.0052L137.028 40.0068L137.54 39.1477ZM144.46 47.2955L143.524 47.6466L143.526 47.652L144.46 47.2955ZM145.449 59.0227L144.46 58.8734L144.459 58.8784L145.449 59.0227ZM140.949 70.75L140.123 70.1853L140.121 70.189L140.949 70.75ZM131.54 78.9318L131.991 79.8242L131.993 79.8231L131.54 78.9318ZM100.346 81.8977L99.3573 81.7504L99.1864 82.8977H100.346V81.8977ZM101.778 72.2841V71.2841H100.916L100.789 72.1368L101.778 72.2841ZM126.017 70.5795L126.468 71.4722L126.475 71.4685L126.017 70.5795ZM131.301 65.8409L130.462 65.2972L130.457 65.304L131.301 65.8409ZM133.79 59.0227L132.801 58.874L132.8 58.8813L133.79 59.0227ZM133.312 52.2386L132.367 52.5647L132.372 52.5777L133.312 52.2386ZM129.426 47.6023L128.914 48.4616L128.922 48.466L129.426 47.6023ZM109.108 45.8977V44.8977H108.246L108.119 45.7496L109.108 45.8977ZM100.108 106V107H100.969L101.097 106.148L100.108 106ZM89.574 106.148L100.006 36.3296L98.0278 36.034L87.596 105.852L89.574 106.148ZM99.0168 37.1818H124.517V35.1818H99.0168V37.1818ZM124.517 37.1818C129.791 37.1818 133.935 38.1514 137.025 40.0052L138.054 38.2902C134.553 36.1895 130.015 35.1818 124.517 35.1818V37.1818ZM137.028 40.0068C140.161 41.8737 142.312 44.4151 143.524 47.6466L145.396 46.9443C144.017 43.2667 141.555 40.3763 138.051 38.2887L137.028 40.0068ZM143.526 47.652C144.772 50.9168 145.098 54.6472 144.46 58.8734L146.437 59.1721C147.117 54.671 146.785 50.5832 145.394 46.9389L143.526 47.652ZM144.459 58.8784C143.844 63.0995 142.396 66.8633 140.123 70.1853L141.774 71.3147C144.228 67.7276 145.781 63.6732 146.438 59.167L144.459 58.8784ZM140.121 70.189C137.88 73.4955 134.876 76.1127 131.086 78.0405L131.993 79.8231C136.067 77.751 139.335 74.9136 141.776 71.311L140.121 70.189ZM131.088 78.0395C127.348 79.9313 122.851 80.8977 117.562 80.8977V82.8977C123.092 82.8977 127.913 81.8869 131.991 79.8242L131.088 78.0395ZM117.562 80.8977H100.346V82.8977H117.562V80.8977ZM101.335 82.045L102.767 72.4314L100.789 72.1368L99.3573 81.7504L101.335 82.045ZM101.778 73.2841H117.699V71.2841H101.778V73.2841ZM117.699 73.2841C121.104 73.2841 124.042 72.6974 126.468 71.4722L125.566 69.6869C123.492 70.7344 120.884 71.2841 117.699 71.2841V73.2841ZM126.475 71.4685C128.871 70.234 130.77 68.5374 132.145 66.3778L130.457 65.304C129.286 67.1444 127.662 68.6069 125.559 69.6906L126.475 71.4685ZM132.14 66.3846C133.521 64.2536 134.397 61.8415 134.779 59.1641L132.8 58.8813C132.455 61.2949 131.672 63.4282 130.462 65.2973L132.14 66.3846ZM134.778 59.1715C135.183 56.4795 135.026 54.0445 134.253 51.8995L132.372 52.5777C133.007 54.3419 133.168 56.4296 132.801 58.874L134.778 59.1715ZM134.258 51.9126C133.493 49.6955 132.033 47.9653 129.93 46.7385L128.922 48.466C130.637 49.4665 131.768 50.8273 132.367 52.5646L134.258 51.9126ZM129.937 46.743C127.815 45.4799 125.001 44.8977 121.585 44.8977V46.8977C124.806 46.8977 127.218 47.4519 128.914 48.4616L129.937 46.743ZM121.585 44.8977H109.108V46.8977H121.585V44.8977ZM108.119 45.7496L99.1188 105.852L101.097 106.148L110.097 46.0458L108.119 45.7496ZM100.108 105H88.585V107H100.108V105Z" fill="black" mask="url(#path-1-outside-1_0_1)"/>
</g>
<g filter="url(#filter1_d_0_1)">
<path d="M155.5 71.5C155.5 108.795 122.64 139.5 81.5 139.5C40.36 139.5 7.5 108.795 7.5 71.5C7.5 34.2048 40.36 3.5 81.5 3.5C122.64 3.5 155.5 34.2048 155.5 71.5Z" stroke="#3E62BF" stroke-width="7" shape-rendering="crispEdges"/>
</g>
<defs>
<filter id="filter0_d_0_1" x="10.4318" y="36.1818" width="140.005" height="77.8182" filterUnits="userSpaceOnUse" color-interpolation-filters="sRGB">
<feFlood flood-opacity="0" result="BackgroundImageFix"/>
<feColorMatrix in="SourceAlpha" type="matrix" values="0 0 0 0 0 0 0 0 0 0 0 0 0 0 0 0 0 0 127 0" result="hardAlpha"/>
<feOffset dy="4"/>
<feGaussianBlur stdDeviation="2"/>
<feComposite in2="hardAlpha" operator="out"/>
<feColorMatrix type="matrix" values="0 0 0 0 0 0 0 0 0 0 0 0 0 0 0 0 0 0 0.25 0"/>
<feBlend mode="normal" in2="BackgroundImageFix" result="effect1_dropShadow_0_1"/>
<feBlend mode="normal" in="SourceGraphic" in2="effect1_dropShadow_0_1" result="shape"/>
</filter>
<filter id="filter1_d_0_1" x="0" y="0" width="163" height="151" filterUnits="userSpaceOnUse" color-interpolation-filters="sRGB">
<feFlood flood-opacity="0" result="BackgroundImageFix"/>
<feColorMatrix in="SourceAlpha" type="matrix" values="0 0 0 0 0 0 0 0 0 0 0 0 0 0 0 0 0 0 127 0" result="hardAlpha"/>
<feOffset dy="4"/>
<feGaussianBlur stdDeviation="2"/>
<feComposite in2="hardAlpha" operator="out"/>
<feColorMatrix type="matrix" values="0 0 0 0 0 0 0 0 0 0 0 0 0 0 0 0 0 0 0.25 0"/>
<feBlend mode="normal" in2="BackgroundImageFix" result="effect1_dropShadow_0_1"/>
<feBlend mode="normal" in="SourceGraphic" in2="effect1_dropShadow_0_1" result="shape"/>
</filter>
</defs>
</svg>
